<svg width="102" height="38" viewBox="0 0 102 38" fill="none" xmlns="http://www.w3.org/2000/svg">
<g clip-path="url(#clip0_1_91)">
<path d="M11.79 18.98C11.96 19.09 12.13 19.2 12.29 19.26C13.58 19.93 14.58 20.83 15.65 21.72C17.16 23.06 18.22 24.8 18.78 26.92C19.12 28.37 18.89 30 17.94 31.68C17.66 32.24 17.32 32.86 16.88 33.36C16.71 33.58 16.43 33.92 16.15 34.14C15.09 35.15 13.91 35.82 12.63 36.32C12.01 36.66 11.34 36.71 10.73 36.66C10.23 36.66 9.78001 36.72 9.28001 37C8.83001 37.22 8.44001 37.34 7.94001 37.5C6.77001 37.78 5.76001 37.84 4.75001 37.67C3.24001 37.45 1.78001 37 0.830011 35.99C-0.0099889 35.09 -0.229989 33.92 0.270011 32.35C0.660011 31.4 1.17001 30.45 1.89001 29.5C2.51001 28.61 3.23001 27.71 4.13001 26.93C4.30001 26.82 4.41001 26.59 4.52001 26.43C4.97001 25.59 5.19001 25.42 6.03001 25.54C6.37001 25.43 6.59001 24.92 7.04001 25.09C6.82001 25.2 6.65001 25.31 6.31001 25.48C6.59001 25.54 6.76001 25.59 6.87001 25.59C6.87001 25.87 6.87001 26.09 6.93001 26.37C6.99001 26.54 6.93001 26.71 6.76001 26.93C6.42001 27.38 6.14001 27.83 5.75001 28.33C5.19001 29.06 4.80001 29.73 4.69001 30.57C4.58001 31.07 4.58001 31.52 4.52001 32.08C4.46001 32.47 4.63001 32.75 5.02001 32.86C5.47001 33.03 6.03001 33.08 6.59001 32.97C7.60001 32.8 8.66001 32.58 9.67001 32.13C10.68 31.68 11.74 31.29 12.75 30.79C13.48 30.45 14.26 30.01 14.93 29.39C15.43 29 15.6 28.55 15.43 28.21C15.04 26.92 14.53 25.8 13.47 24.97C11.74 23.57 9.72001 22.34 7.71001 21.17C6.48001 20.44 5.36001 19.66 4.30001 18.76C3.07001 17.81 2.17001 16.58 1.50001 15.29C0.210011 13.16 1.39001 10.25 3.18001 8.07001C4.80001 6.06001 6.98001 4.71001 9.22001 3.48001C9.89001 3.20001 10.56 3.03001 11.18 2.75001C14.59 1.52001 17.78 1.41001 20.86 1.63001C21.81 1.74001 22.71 1.91001 23.66 2.02001C24.67 2.13001 25.62 2.36001 26.35 2.92001C26.63 3.14001 26.8 3.37001 26.63 3.81001C26.57 3.92001 26.57 4.09001 26.57 4.20001C26.51 4.48001 26.51 4.76001 26.4 5.04001C25.95 5.99001 25.62 6.94001 25.56 7.89001C25.5 8.28001 25.22 8.84001 24.94 9.29001C24.72 9.74001 24.38 10.07 24.16 10.47C23.94 10.86 23.66 11.14 23.26 11.37C22.64 11.65 22.14 11.93 21.53 12.1C21.19 12.27 20.86 12.27 20.63 12.1C19.79 11.76 18.9 11.6 18 11.48C16.21 11.26 14.42 10.98 12.46 11.03C11.9 11.09 11.29 11.14 10.73 11.31C10.06 11.42 9.44001 11.59 8.83001 11.7C4.80001 12.71 7.15001 15.62 9.17001 17.07C10.07 17.63 10.96 18.3 11.8 18.97L11.79 18.98Z" fill="#3B3B42"/>
<path d="M31.65 25.41C31.59 25.35 31.43 25.35 31.37 25.52C31.31 25.52 31.31 25.58 31.31 25.63C31.09 26.19 30.81 26.53 30.3 26.41C30.02 26.69 29.91 26.97 29.68 27.19C29.46 27.3 29.18 27.53 29.12 27.92C29.12 28.03 29.06 28.09 29.01 28.2C28.73 28.59 28.45 28.87 28.23 29.21C28.01 29.77 27.61 30.11 27.22 30.44C27.05 30.66 26.77 30.83 26.6 31.22C26.6 31.28 26.49 31.44 26.32 31.44C26.04 31.5 25.76 31.72 25.48 31.94C24.86 32.28 24.25 32.56 23.58 32.61C22.96 32.61 22.41 32.55 21.85 32.27C20.96 31.77 20.62 30.82 20.51 29.59C20.51 29.31 20.51 29.03 20.62 28.75C20.73 27.02 21.07 25.28 21.52 23.55C21.8 22.6 22.14 21.76 22.47 20.92C23.2 19.41 23.81 17.79 24.54 16.28C24.54 16.11 24.6 16.06 24.65 15.89C24.99 14.6 25.66 13.37 26.33 12.2C26.55 11.86 26.67 11.53 26.89 11.08C27.17 11.02 27.45 11.02 27.67 11.25C28.29 11.64 28.9 12.09 29.57 12.48C29.68 12.54 29.85 12.65 29.85 12.76C30.24 13.6 30.75 14.38 30.97 15.33C31.08 15.89 31.14 16.39 31.25 16.95C31.36 17.57 31.31 18.24 31.03 18.8C30.81 19.25 30.69 19.75 30.47 20.2C30.41 20.48 30.3 20.76 30.25 21.04C29.91 22.16 29.58 23.28 29.08 24.4C29.08 24.4 29.02 24.46 29.02 24.51C29.02 24.51 29.02 24.57 28.91 24.68C28.85 25.07 28.74 25.52 28.52 25.97C28.63 25.91 28.74 25.91 28.8 25.86C29.36 25.24 29.97 24.52 30.53 23.85C31.54 22.73 32.43 21.61 33.38 20.49C33.77 20.04 34.11 19.71 34.44 19.2C35.5 17.75 36.68 16.46 37.85 15.17C38.07 14.95 38.3 14.78 38.47 14.72C38.97 14.5 39.48 14.44 39.87 14.5C40.09 14.61 40.26 14.67 40.37 14.78C40.82 15.23 41.21 15.73 41.66 16.12C41.94 16.34 42.11 16.68 42.28 17.13C42.39 17.52 42.5 17.86 42.56 18.31C42.67 18.87 42.67 19.43 42.5 20.04C42.11 21.33 41.77 22.5 41.27 23.68C41.16 24.18 40.93 24.69 40.82 25.3C40.99 25.24 41.16 25.13 41.21 25.08C42.33 24.46 43.34 23.57 44.29 22.56C45.19 21.72 46.14 20.94 47.14 20.38C47.31 20.32 47.42 20.21 47.59 20.04C47.93 19.76 48.21 19.82 48.43 20.04C48.71 20.26 48.82 20.66 49.21 20.82C49.49 20.93 49.66 21.21 49.88 21.49C49.82 21.99 49.82 22.44 49.88 22.89C49.88 23.28 49.77 23.67 49.6 24.12C49.26 24.29 49.49 24.74 49.26 25.02C49.2 25.69 49.09 26.36 48.98 26.98C48.92 27.6 48.92 28.15 48.98 28.77C48.98 29.16 49.09 29.33 49.37 29.44C50.21 29.61 53.12 27.54 53.68 26.81C54.69 25.69 55.53 24.4 56.31 23.06C56.37 22.78 56.48 22.5 56.65 22.33C56.76 22.5 56.82 22.5 56.76 22.55C56.59 23.39 56.87 22.89 56.76 23.84C56.76 23.62 56.48 24.79 56.31 24.68C56.2 24.68 56.2 24.85 56.09 24.96C55.75 25.58 55.42 26.13 55.14 26.81C55.14 27.03 54.97 27.2 54.92 27.31C54.42 27.65 54.08 28.04 53.69 28.43C53.69 28.6 53.52 28.65 53.41 28.71C53.13 29.33 50.78 31 50.17 31C49.89 31 48.55 30.89 48.27 30.66C47.71 30.16 46.82 29.54 46.48 28.76C46.2 28.09 46.2 27.25 46.42 26.41C46.7 25.01 47.04 23.67 47.54 22.33C47.6 22.16 47.65 21.94 47.65 21.77C47.71 21.66 47.65 21.6 47.65 21.43C47.31 21.49 47.09 21.88 46.81 21.93C46.53 22.04 46.25 22.15 46.03 22.32C45.99 22.6933 45.86 23.0467 45.64 23.38C45.42 23.6 45.3 23.88 45.08 24.16C44.8 23.99 44.52 24.16 44.24 24.38C43.79 24.77 43.4 25.11 42.9 25.5C42.79 25.61 42.62 25.67 42.51 25.89C42.01 26.51 41.39 26.95 40.72 27.46C40.66 27.57 40.55 27.57 40.44 27.74C40.1 28.41 39.43 28.75 38.93 29.31C38.76 29.53 38.59 29.76 38.37 29.98C37.47 30.71 36.47 30.99 35.52 30.88C35.07 30.82 34.68 30.54 34.34 30.15C33.95 29.76 33.78 29.26 33.84 28.47C33.84 27.85 33.95 27.3 34.18 26.68C35.08 23.88 36.42 21.42 38.04 19.07C38.43 18.34 38.94 17.67 39.33 16.89C39.55 16.67 39.72 16.39 39.61 16.05C39.44 15.88 39.22 15.88 38.99 16.11C38.88 16.28 38.71 16.39 38.49 16.56C37.93 17.12 37.37 17.68 36.81 18.13C36.47 18.52 36.19 18.86 35.97 19.36C35.69 20.03 35.35 20.59 34.91 21.09C34.41 21.59 33.96 22.04 33.62 22.6C33.28 23.05 33.06 23.55 32.78 24C32.67 24.28 32.44 24.67 32.28 24.95C32.17 25.12 32 25.34 31.89 25.51C31.83 25.51 31.72 25.4 31.67 25.4L31.65 25.41Z" fill="#3B3B42"/>
<path d="M56.54 17.97L56.6 17.91C56.77 17.69 56.88 17.63 57.05 17.52C57.67 17.41 59.06 16.4 59.62 16.74C59.79 16.96 60.35 17.24 60.57 17.47C60.79 17.75 60.85 18.14 60.68 18.7C60.34 19.43 59.95 20.1 59.51 20.99C59.4 21.33 59.29 21.61 59.23 21.83C59.01 22.33 58.78 23.01 58.5 23.51C58.28 24.18 59.28 22.06 59.17 22.62C59.17 22.79 59.06 22.96 59 23.07C58.55 24.19 58.55 23.97 58.5 24.97C58.5 25.53 58.28 28.38 58.33 28.89C58.39 29.28 58.61 29.51 58.78 29.73C59 29.84 59.28 30.07 59.62 30.18C59.9 30.4 60.18 30.29 60.52 30.24C65.16 28.56 63.49 27.95 66.17 25.09C66.67 24.36 67.29 23.69 67.57 22.8C67.57 22.76 67.6267 22.6467 67.74 22.46C68.02 23.02 67.4 23.8 68.19 23.97C67.02 26.1 66.18 29.17 64.27 30.29C63.71 31.02 59.91 34.37 57.45 33.42C56.67 33.7 55.94 32.92 55.1 32.58C54.54 32.36 53.98 31.91 53.48 31.35C53.2 30.62 52.92 29.84 52.92 29.11C52.81 28.77 52.81 28.38 52.81 28.1C52.98 27.43 52.87 26.14 53.09 25.69C53.15 25.41 53.26 25.13 53.26 24.79C53.37 24.73 53.26 24.45 53.65 24.4C53.71 24.4 53.76 24.18 53.82 24.12C54.1 23.73 54.16 23.39 54.44 23C54.44 23 53.27 24.18 53.94 23.06C54.39 21.94 55.39 20.71 55.73 19.93C55.73 19.82 55.84 19.65 55.84 19.65C56.01 19.31 56.18 19.09 56.06 18.7C56 18.48 56.06 18.25 56.23 17.92C56.34 17.98 56.4 18.03 56.57 17.98L56.54 17.97ZM61.69 11.87C61.58 12.04 61.47 12.15 61.41 12.37C61.41 12.43 61.41 12.54 61.3 12.65C61.13 12.82 60.96 13.04 60.74 13.32C60.63 13.49 60.18 13.71 59.9 13.77C59.79 13.71 59.62 13.83 59.51 13.94C59.17 14.16 58.95 14.11 58.73 14C58.56 13.89 58.45 13.89 58.28 13.89C58.06 13.89 57.89 13.89 57.66 13.83C57.72 13.77 57.77 13.66 57.83 13.61C57.83 13.44 57.94 13.27 58 13.05C58.11 12.77 58.22 12.6 58.39 12.32C58.39 12.21 58.56 12.1 58.56 12.04C58.56 11.7 58.84 11.42 59.01 11.09C59.12 10.92 59.23 10.75 59.35 10.59C59.46 10.48 59.57 10.37 59.69 10.37C59.8 10.31 59.91 10.31 59.97 10.37C59.97 10.48 60.08 10.48 60.19 10.43C60.3 10.37 60.36 10.32 60.41 10.37C60.63 10.48 60.91 10.54 61.14 10.59C61.53 10.76 61.81 11.04 62.04 11.43C61.87 11.6 61.82 11.77 61.7 11.88L61.69 11.87Z" fill="#3B3B42"/>
<path d="M83.23 25.36C82.95 25.92 82 27.15 82 27.77C81.94 27.83 81.78 27.99 81.66 28.05C81.49 28.22 81.32 28.44 81.21 28.72C81.1 29 80.93 29.11 80.82 29.34C80.04 30.74 79.53 31.52 78.25 32.75C77.91 33.03 74.95 35.88 74.73 36.16C73.11 37.5 70.93 36.89 69.3 36.94C68.85 36.94 68.4 36.88 68.13 36.72C67.63 36.44 66.51 35.99 66.17 35.49C65.67 34.26 64.38 33.42 64.27 31.69C64.21 31.24 63.99 30.96 63.93 30.51C63.99 28.72 64.27 26.93 64.49 25.08C64.83 23.79 65.11 22.39 65.33 21.11C65.89 18.7 66.06 18.42 67.12 16.24C67.68 14.79 68.18 14.67 68.74 13.22C69.13 12.44 69.58 11.65 70.03 10.98C70.37 10.14 70.93 9.36002 71.43 8.52002C72.49 6.67002 73.67 5.05001 74.9 3.71002C75.74 2.87002 76.63 1.98002 77.47 1.25002C77.97 0.860015 78.48 0.410015 78.98 0.240015C79.15 0.130015 79.32 0.0700151 79.48 0.0200151C80.26 -0.0399849 80.99 0.0800151 81.55 0.640015C82.11 1.14002 82.28 1.93002 82.11 2.99002C82 3.66002 81.94 4.33002 81.77 4.95002C81.71 5.45002 81.49 5.90002 81.21 6.46002C80.82 7.41002 80.37 8.31001 79.76 9.20002C79.37 9.93002 78.92 10.65 78.53 11.38C77.86 12.39 77.3 13.45 76.63 14.4C75.46 15.97 74.45 17.65 73.39 19.21C71.66 22.18 71.82 22.68 71.21 25.64C70.99 26.82 71.1 27.49 71.04 28.66C71.1 29 71.26 31.18 71.32 31.4C71.49 32.18 71.66 32.46 71.99 33.19C72.1 33.41 72.88 33.58 73.16 33.69C73.55 33.97 76.52 31.96 76.91 31.68C77.81 31.18 78.53 30.34 79.32 29.55C80.16 28.77 80.55 27.87 81.28 26.81C82.29 25.47 82.62 24.35 83.69 22.89C84.47 22.78 84.03 23.95 83.24 25.35L83.23 25.36ZM74.28 15.29C76.07 12.44 76.35 11.99 77.97 8.91002C78.59 7.73002 79.09 6.56002 79.7 5.39002C79.98 4.55001 80.15 3.71001 80.26 2.87001C80.37 2.59001 80.37 2.42002 80.09 2.53001C79.81 2.59001 79.64 2.70002 79.47 2.81001C78.74 3.09001 78.07 3.65002 77.57 4.43002C77.18 4.88001 76.9 5.38002 76.45 5.83002C75.95 6.45002 75.67 7.06002 75.44 7.79002C75.16 8.35002 74.88 9.02001 74.6 9.58002C74.21 10.75 73.65 11.93 73.09 13.1C72.87 13.66 72.7 14.28 72.47 14.83C71.8 16.73 72.08 15.78 71.46 17.68C71.29 18.13 71.4 19.41 72.13 18.63C72.97 17.4 73.53 16.56 74.26 15.27L74.28 15.29Z" fill="#3B3B42"/>
<path d="M86.02 22.84C86.02 22.95 85.91 23.06 85.8 23.12C85.74 23.18 85.63 23.23 85.63 23.4C85.57 23.62 85.52 23.68 85.35 23.74C85.24 23.8 85.24 23.85 85.18 24.19C85.29 24.19 85.35 24.19 85.4 24.25V24.31H85.01C85.07 24.14 85.07 23.97 85.07 23.86H84.96C84.9 24.25 84.85 24.64 84.79 25.04C84.9 25.1 84.96 25.15 85.01 25.15C85.07 25.54 85.07 25.88 85.07 26.27C85.07 26.66 85.18 27 85.29 27.28C85.46 27.5 85.91 28.73 86.07 28.96C86.85 29.74 87.8 30.75 88.7 30.81C88.98 30.87 90.6 30.59 90.88 30.53C92.22 30.14 93.51 29.41 94.74 28.46C95.69 27.73 96.59 26.89 97.54 26.11C97.6 26.05 97.65 26 97.71 25.94C98.05 25.55 98.38 25.21 98.72 24.82C99.34 24.2 99.89 23.59 100.4 22.86C100.57 22.58 100.74 22.3 101.07 22.19C100.96 22.69 100.85 23.14 100.62 23.59C100.56 23.76 100.45 23.93 100.34 24.04C100 24.43 99.72 24.77 99.5 25.22C99.33 25.44 99.11 25.67 98.94 25.89C98.88 25.95 98.83 26.06 98.72 26.23C98.89 26.17 99 26.12 99.17 26.06C99.11 26.4 98.83 26.45 98.78 26.73C98.84 26.79 98.84 26.84 98.95 26.9C98.78 27.18 98.61 27.35 98.39 27.57C98.05 27.85 97.72 28.19 97.44 28.52C96.94 29.08 96.38 29.53 95.82 29.97C95.54 30.19 95.32 30.42 95.04 30.59C94.82 30.76 94.59 30.87 94.37 31.04C94.03 31.21 93.7 31.38 93.36 31.6C92.8 31.94 92.19 32.22 91.57 32.33C91.4 32.39 91.23 32.44 91.07 32.5C90.4 32.72 89.73 32.84 89.06 32.89C88.28 33 84.98 32.39 84.25 32.11C82.29 31.33 81.9 30.38 81.01 29.59C80.67 29.31 80.39 28.86 80.23 28.41C79.95 27.68 79.89 26.9 79.84 26.06C79.84 24.33 80.29 22.65 81.01 21.08C81.1233 20.8533 81.16 20.5733 81.12 20.24C80.84 20.41 80.67 20.52 80.56 20.86C80.39 21.36 80.17 21.81 79.89 22.31C79.89 21.81 80.11 21.47 80.28 21.08C80.73 20.07 81.23 19.12 81.85 18.23C82.47 17.28 83.14 16.44 83.92 15.66C84.7 14.82 85.54 14.09 86.44 13.53C86.66 13.42 86.83 13.36 87 13.25C87.28 13.14 87.56 13.08 87.73 13.36C87.9 13.53 88.12 13.47 88.23 13.58C88.4 13.69 88.45 13.92 88.57 14.03C89.13 14.31 91.26 14.87 91.76 15.2C91.93 15.31 92.04 15.54 92.15 15.76C92.43 16.26 92.65 16.82 93.05 17.16C93.16 17.27 93.22 17.5 93.27 17.66C93.38 18.33 93.44 18.95 93.27 19.67C93.16 20.45 92.82 21.18 92.43 21.85C92.21 22.24 91.98 22.58 91.81 23.03C91.7 23.42 91.47 23.76 91.25 24.15C91.03 24.6 90.63 24.88 90.24 24.99C89.9 25.16 89.51 25.21 89.18 25.16C89.01 25.1 88.84 25.16 88.73 24.94C88.73 24.88 88.67 24.88 88.67 24.88C88.22 24.94 87.94 24.43 87.61 24.26C87.55 24.2 87.5 24.04 87.5 23.98C87.61 23.76 87.5 23.64 87.44 23.48C87.22 23.03 86.99 22.53 86.71 22.08C86.65 21.91 86.49 21.86 86.32 22.02C86.26 22.3 86.04 22.52 86.04 22.86L86.02 22.84ZM80.71 27.88C80.77 28.05 80.82 28.16 80.88 28.33C80.88 28.5 81.05 28.61 80.94 28.83C80.88 28.77 80.83 28.77 80.83 28.72C80.55 28.16 80.44 27.43 80.33 26.71C80.27 26.65 80.33 26.6 80.33 26.54C80.33 25.7 80.33 24.92 80.55 24.08C80.61 23.91 80.66 23.74 80.66 23.58V23.19C80.49 23.53 80.38 23.75 80.32 23.97C80.26 24.25 80.21 24.47 80.15 24.75C79.93 26.2 79.98 27.55 80.6 28.72C80.71 28.94 80.88 29.11 81.05 29.34C81.16 29.45 81.27 29.51 81.44 29.56C81.44 29.62 81.5 29.56 81.61 29.56C81.44 29.28 81.27 29.06 81.16 28.78C80.99 28.44 80.99 28.11 80.82 27.83C80.76 27.83 80.71 27.89 80.71 27.89V27.88ZM80.71 24.3C80.43 25.2 80.49 26.03 80.6 26.87C80.6 26.93 80.66 26.93 80.71 26.98C80.77 26.36 80.82 25.8 80.88 25.25C80.94 24.86 80.99 24.47 80.82 24.13C80.76 24.19 80.71 24.24 80.71 24.3ZM87.76 19.83C87.65 20 87.48 20.22 87.37 20.45C87.15 20.84 87.2 21.12 87.48 21.29C87.65 21.4 87.87 21.51 87.98 21.68C88.32 22.07 88.76 22.02 89.21 21.96C89.6 21.85 89.88 21.46 90.1 21.06C90.49 20.11 90.72 19.94 91.05 18.99C91.95 16.86 90.15 17.37 89.32 18.04C88.7 18.49 88.26 19.21 87.75 19.83H87.76Z" fill="#3B3B42"/>
</g>
<defs>
<clipPath id="clip0_1_91">
<rect width="101.07" height="37.76" fill="white"/>
</clipPath>
</defs>
</svg>
