<svg width="45" height="46" viewBox="0 0 45 46" fill="none" xmlns="http://www.w3.org/2000/svg">
<path d="M27.4219 46H17.7539C11.9384 46 7.20707 41.1635 7.20707 35.2188V30.3672C7.20707 26.404 10.3613 23.1797 14.2383 23.1797H30.9375C34.8146 23.1797 37.9688 26.404 37.9688 30.3672V35.2188C37.9688 41.1635 33.2374 46 27.4219 46ZM14.2383 26.7734C12.2998 26.7734 10.7227 28.3856 10.7227 30.3671V35.2187C10.7227 39.1819 13.8769 42.4062 17.7539 42.4062H27.4219C31.299 42.4062 34.4531 39.1819 34.4531 35.2187V30.3671C34.4531 28.3856 32.876 26.7734 30.9375 26.7734H14.2383ZM37.9688 10.7812C37.9688 4.83646 33.2374 0 27.4219 0H17.7539C11.9384 0 7.20707 4.83646 7.20707 10.7812C7.20707 11.7737 7.99407 12.5781 8.96492 12.5781C9.93576 12.5781 10.7228 11.7737 10.7228 10.7812C10.7228 6.81802 13.877 3.59374 17.754 3.59374H27.422C31.299 3.59374 34.4532 6.81802 34.4532 10.7812C34.4532 11.7737 35.2402 12.5781 36.2111 12.5781C37.1819 12.5781 37.9688 11.7737 37.9688 10.7812ZM45 33.1523V26.7734C45 20.8286 40.2687 15.9922 34.4531 15.9922H10.5469C4.73132 15.9922 0 20.8286 0 26.7734V33.1523C0 34.1448 0.787009 34.9492 1.75785 34.9492C2.7287 34.9492 3.5157 34.1448 3.5157 33.1523V26.7734C3.5157 22.8102 6.66989 19.5859 10.5469 19.5859H34.4532C38.3303 19.5859 41.4845 22.8102 41.4845 26.7734V33.1523C41.4845 34.1448 42.2715 34.9492 43.2423 34.9492C44.2132 34.9492 45 34.1448 45 33.1523ZM26.6263 38.7243C27.669 38.6893 29.2293 38.2924 30.7414 36.5995C31.396 35.8666 31.3455 34.7301 30.6285 34.061C29.9116 33.3918 28.7997 33.4434 28.1452 34.1764C27.0824 35.3662 26.0863 35.438 24.8155 34.4156L22.1422 32.1806C22.1347 32.1744 22.1273 32.1682 22.1197 32.1621C19.7607 30.255 16.4254 30.363 14.1892 32.4189C13.4674 33.0825 13.4085 34.2186 14.0577 34.9565C14.707 35.6944 15.8184 35.7544 16.5402 35.0909C17.4954 34.2127 18.9186 34.1637 19.929 34.9729L22.6016 37.2074C22.6091 37.2136 22.6165 37.2198 22.6241 37.2259C23.8416 38.2102 25.1654 38.7271 26.4634 38.7271C26.5178 38.727 26.5722 38.726 26.6263 38.7243Z" fill="white"/>
</svg>
