<svg width="44" height="46" viewBox="0 0 44 46" fill="none" xmlns="http://www.w3.org/2000/svg">
<path d="M34.3329 26.6182C32.5915 24.7976 30.3947 23.5688 27.9799 23.0641L23.1103 22.0465C22.547 21.9286 21.9645 22.1131 21.5581 22.538C21.1518 22.9629 20.9754 23.5718 21.088 24.1609L22.0613 29.2518C22.544 31.7764 23.7195 34.073 25.4608 35.8936L33.2905 44.0791C34.4754 45.3179 36.0508 46.0002 37.7265 46.0002C39.4022 46.0002 40.9775 45.3179 42.1624 44.0791C43.3473 42.8403 43.9999 41.1933 43.9999 39.4416C43.9999 37.6897 43.3474 36.0427 42.1624 34.804L34.3329 26.6182ZM39.7318 41.5379C39.1963 42.0978 38.484 42.4063 37.7266 42.4063C36.9691 42.4063 36.2568 42.0978 35.7213 41.5378L27.8916 33.3523C26.6319 32.0352 25.7814 30.3738 25.4322 28.5474L24.9641 26.0989L27.3061 26.5883C29.0532 26.9534 30.6424 27.8423 31.9021 29.1595L39.7318 37.3451C40.2674 37.905 40.5624 38.6496 40.5624 39.4415C40.5624 40.2334 40.2675 40.9779 39.7318 41.5379ZM15.211 3.59374H10.0169C9.30725 1.50233 7.39693 0 5.15628 0C2.31309 0 0 2.41823 0 5.39066C0 7.73316 1.43701 9.7304 3.43749 10.4723V15.8126C3.43749 16.805 4.20701 17.6095 5.15628 17.6095C6.10555 17.6095 6.87507 16.805 6.87507 15.8126V10.4723C8.33755 9.92995 9.49821 8.71661 10.0169 7.18758H15.211C16.1602 7.18758 16.9298 6.38308 16.9298 5.39066C16.9298 4.39824 16.1602 3.59374 15.211 3.59374ZM5.15628 7.18749C4.20858 7.18749 3.43749 6.38144 3.43749 5.39057C3.43749 4.39971 4.2085 3.59366 5.15628 3.59366C6.10407 3.59366 6.87507 4.39971 6.87507 5.39057C6.87507 6.38144 6.10399 7.18749 5.15628 7.18749ZM28.7031 7.18749H33.9831C34.5019 8.71644 35.6624 9.92986 37.125 10.4722V15.8125C37.125 16.8049 37.8945 17.6094 38.8438 17.6094C39.7931 17.6094 40.5626 16.8049 40.5626 15.8125V10.4722C42.5631 9.7304 44.0001 7.73307 44.0001 5.39057C44 2.41823 41.6869 0 38.8437 0C36.6031 0 34.6927 1.50233 33.9831 3.59374H28.7031C27.7538 3.59374 26.9843 4.39824 26.9843 5.39066C26.9843 6.38308 27.7539 7.18749 28.7031 7.18749ZM38.8437 3.59374C39.7914 3.59374 40.5625 4.39979 40.5625 5.39066C40.5625 6.38153 39.7915 7.18758 38.8437 7.18758C37.896 7.18758 37.1249 6.38153 37.1249 5.39066C37.1249 4.39979 37.896 3.59374 38.8437 3.59374ZM15.211 38.8125H10.0169C9.49813 37.2836 8.33755 36.0701 6.87499 35.5278V30.0977C6.87499 29.1053 6.10547 28.3008 5.1562 28.3008C4.20693 28.3008 3.43741 29.1053 3.43741 30.0977V35.5278C1.43701 36.2696 0 38.2668 0 40.6093C0 43.5818 2.31309 46 5.15628 46C7.39693 46 9.30734 44.4977 10.0169 42.4063H15.211C16.1602 42.4063 16.9298 41.6018 16.9298 40.6093C16.9298 39.6169 16.1602 38.8125 15.211 38.8125ZM5.15628 42.4063C4.20858 42.4063 3.43749 41.6002 3.43749 40.6093C3.43749 39.6185 4.2085 38.8124 5.15628 38.8124C6.10407 38.8124 6.87507 39.6185 6.87507 40.6093C6.87507 41.6002 6.10399 42.4063 5.15628 42.4063ZM24.0625 5.39066C24.0625 6.63114 23.1006 7.63674 21.914 7.63674C20.7275 7.63674 19.7656 6.63114 19.7656 5.39066C19.7656 4.15018 20.7275 3.14458 21.914 3.14458C23.1006 3.14449 24.0625 4.15018 24.0625 5.39066ZM21.914 38.3633C20.7275 38.3633 19.7656 39.3689 19.7656 40.6093C19.7656 41.8498 20.7275 42.8554 21.914 42.8554C23.1006 42.8554 24.0625 41.8498 24.0625 40.6093C24.0625 39.3689 23.1006 38.3633 21.914 38.3633ZM38.8437 20.9336C37.6572 20.9336 36.6953 21.9392 36.6953 23.1796C36.6953 24.4201 37.6572 25.4257 38.8437 25.4257C40.0303 25.4257 40.9921 24.4201 40.9921 23.1796C40.9921 21.9392 40.0303 20.9336 38.8437 20.9336ZM5.15628 20.9336C3.96974 20.9336 3.00786 21.9392 3.00786 23.1796C3.00786 24.4201 3.96974 25.4257 5.15628 25.4257C6.34283 25.4257 7.30471 24.4201 7.30471 23.1796C7.30471 21.9392 6.34283 20.9336 5.15628 20.9336Z" fill="white"/>
</svg>
