<svg
  width="44"
  height="45"
  viewBox="0 0 44 45"
  fill="none"
  xmlns="http://www.w3.org/2000/svg"
>
  <path
    d="M34.1176 11.8652C33.6602 11.8652 33.2039 11.6797 32.8657 11.3122C32.2152 10.6053 32.248 9.49282 32.9393 8.82744L34.4002 7.42116C35.0914 6.75578 36.179 6.7895 36.8298 7.49643C37.4803 8.20336 37.4474 9.31581 36.7561 9.98119L35.2951 11.3875C34.9633 11.7069 34.5399 11.8652 34.1176 11.8652ZM35.6057 41.9417L40.9493 36.5219C42.888 34.5555 44 31.8259 44 29.0333V10.5469C44 4.73132 39.3738 0 33.6875 0H15.656C12.9177 0 10.3386 1.08607 8.39433 3.05827L3.05072 8.47798C1.11196 10.4444 0 13.174 0 15.9667V34.4531C0 40.2687 4.62618 45 10.3125 45H28.344C31.0825 45 33.6614 43.9139 35.6057 41.9417ZM33.6875 3.51562C37.4784 3.51562 40.5625 6.66981 40.5625 10.5469V29.0333C40.5625 30.895 39.8212 32.7148 38.5287 34.0258L33.1852 39.4456C31.8889 40.7603 30.1697 41.4844 28.344 41.4844H10.3125C6.52159 41.4844 3.43749 38.3302 3.43749 34.4531V15.9667C3.43749 14.105 4.17883 12.2852 5.47128 10.9742L10.8148 5.55441C12.1111 4.23966 13.8303 3.51562 15.656 3.51562H33.6875ZM33.6016 34.1895V19.4239C33.6016 14.5292 29.7078 10.5469 24.9219 10.5469H11.086C10.1367 10.5469 9.36717 11.334 9.36717 12.3048C9.36717 13.2756 10.1367 14.0626 11.086 14.0626H24.9219C27.8125 14.0626 30.1641 16.4677 30.1641 19.4239V34.1896C30.1641 35.1604 30.9336 35.9474 31.8828 35.9474C32.8321 35.9474 33.6016 35.1602 33.6016 34.1895Z"
    fill="white"
  />
</svg>